<svg width="14" height="9" viewBox="0 0 14 9" fill="none" xmlns="http://www.w3.org/2000/svg">
<path d="M13.707 1.20697C13.5195 1.0195 13.2652 0.914185 13 0.914185C12.7348 0.914185 12.4805 1.0195 12.293 1.20697L7.70701 5.79297C7.51688 5.97546 7.26355 6.07736 7.00001 6.07736C6.73647 6.07736 6.48314 5.97546 6.29301 5.79297L1.70701 1.20697C1.51841 1.02481 1.26581 0.924018 1.00361 0.926297C0.741413 0.928575 0.4906 1.03374 0.305192 1.21915C0.119784 1.40456 0.0146148 1.65537 0.0123364 1.91757C0.010058 2.17977 0.110853 2.43237 0.293011 2.62097L4.87801 7.20697C5.15659 7.4856 5.48733 7.70662 5.85134 7.85742C6.21535 8.00822 6.6055 8.08583 6.99951 8.08583C7.39352 8.08583 7.78367 8.00822 8.14768 7.85742C8.51169 7.70662 8.84243 7.4856 9.12101 7.20697L13.707 2.62097C13.8945 2.43344 13.9998 2.17913 13.9998 1.91397C13.9998 1.64881 13.8945 1.3945 13.707 1.20697Z" fill="#5A585B"/>
</svg>
